<?xml version="1.0" encoding="iso-8859-1"?>
<!-- Generator: Adobe Illustrator 19.0.0, SVG Export Plug-In . SVG Version: 6.00 Build 0)  -->
<svg version="1.1" id="Capa_1" xmlns="http://www.w3.org/2000/svg" xmlns:xlink="http://www.w3.org/1999/xlink" x="0px" y="0px"
	 viewBox="0 0 512.001 512.001" style="enable-background:new 0 0 512.001 512.001;" xml:space="preserve">
<g>
	<g>
		<path d="M477.196,267.258l-35.588-64.423c-0.032-7.818-0.209-31.374-0.571-36.268c-0.009-0.125-0.021-0.249-0.034-0.374
			l-1.551-13.87c-0.013-0.114-0.028-0.229-0.045-0.343c-5.89-40.076-23.228-73.591-51.531-99.615
			c-26.08-23.979-61.118-40.547-101.325-47.914c-15.4-2.825-31.564-4.32-48.037-4.444c-32.186-0.275-63.13,6.854-91.939,21.107
			c-33.389,16.521-61.739,41.822-81.987,73.167c-20.837,32.258-32.109,69.571-32.596,107.906
			c-1.077,84.652,49.932,160.917,127.775,192.489l-17.95,84.454c-0.579,2.726,0.005,5.57,1.613,7.847
			c1.607,2.276,4.092,3.779,6.855,4.145l156.837,20.79c0.444,0.059,0.886,0.088,1.322,0.088c4.463,0,8.461-2.99,9.648-7.403
			l20.656-76.775c1.489,0.137,3.139,0.287,4.921,0.447c9.238,0.829,20.892,1.83,29.042,2.524c7.038,0.599,42.24,3.587,44.083,3.587
			c7.659,0,14.694-2.938,19.81-8.273c4.904-5.113,7.466-11.832,7.229-18.942V303.534l17.033-2.9
			c7.285-1.143,13.57-5.768,16.829-12.388C480.969,281.595,480.782,273.749,477.196,267.258z M459.751,279.415
			c-0.28,0.571-0.855,1.289-1.995,1.462c-0.057,0.009-0.114,0.018-0.171,0.027l-25.43,4.33c-4.806,0.818-8.321,4.983-8.321,9.858
			V407.35c0,0.139,0.003,0.278,0.009,0.418c0.091,2.179-0.859,3.648-1.673,4.496c-1.267,1.322-3.098,2.068-5.173,2.114
			c-5.683-0.355-77.178-6.365-83.771-7.192c-1.3-0.254-2.659-0.252-4.003,0.033c-3.673,0.782-6.598,3.556-7.573,7.183
			l-20.591,76.532l-137.431-18.217l15.438-72.636l69.059,13.484c0.647,0.126,1.292,0.188,1.927,0.188
			c4.688,0,8.872-3.312,9.804-8.085c1.059-5.42-2.479-10.673-7.898-11.731l-18.675-3.646v-25.994l22.788-22.788
			c4.708,0.705,12.016,1.53,20.475,1.53c17.039,0,38.731-3.348,53.139-17.755c26.333-26.334,15.717-76.985,15.252-79.129
			c-0.83-3.831-3.822-6.822-7.653-7.653c-2.144-0.465-52.794-11.081-79.129,15.253c-21.562,21.563-18.352,59.421-16.226,73.613
			l-8.646,8.646v-92.798l28.318-28.318c5.593,0.884,14.92,2.025,25.818,2.025c20.335,0,46.113-3.977,63.163-21.027
			c31.275-31.275,18.564-91.908,18.007-94.474c-0.83-3.831-3.822-6.822-7.653-7.653c-2.566-0.556-63.199-13.268-94.474,18.007
			c-26.188,26.188-21.535,72.95-19.002,88.981l-14.176,14.175v-67.598c0-5.523-4.477-10-10-10s-10,4.477-10,10v111.076l-8.872-8.872
			c2.127-14.191,5.337-52.05-16.226-73.613c-26.334-26.334-76.985-15.718-79.129-15.253c-3.831,0.831-6.822,3.823-7.653,7.653
			c-0.465,2.144-11.081,52.795,15.253,79.129c14.41,14.41,36.098,17.756,53.138,17.756c8.457,0,15.766-0.824,20.474-1.53
			l23.014,23.014v99.692l-39.246-7.663c-74.03-26.722-123.048-97.469-122.046-176.283C52.876,132.789,92.517,70.178,155.443,39.04
			c25.98-12.853,53.883-19.243,82.919-19.034c15.318,0.115,30.318,1.5,44.583,4.117c76.65,14.043,126.447,61.637,136.649,130.596
			l1.509,13.488c0.199,3.063,0.354,15.129,0.439,24.799h-21.447c-5.522,0-10,4.477-10,10c0,5.523,4.478,10,10,10h24.284
			l35.311,63.922C460.252,277.946,460.033,278.842,459.751,279.415z M300.988,282.447c-3.906-3.905-10.236-3.905-14.143,0
			l-26.44,26.44c-0.224-14.169,2.123-31.225,11.89-40.991c13.137-13.138,39.468-12.854,54.204-10.941
			c1.938,14.719,2.24,40.987-10.959,54.186c-9.767,9.767-26.826,12.113-40.992,11.889l26.44-26.44
			C304.893,292.685,304.893,286.353,300.988,282.447z M315.59,146.764c-3.906-3.905-10.236-3.905-14.143,0.001L265.612,182.6
			c-0.945-18.519,1.321-43.017,14.988-56.683c18.532-18.533,54.718-15.768,69.532-13.697c2.071,14.827,4.833,51.004-13.696,69.533
			v0.001c-14.34,14.34-39.243,15.925-56.644,14.95l35.798-35.798C319.495,157.001,319.495,150.669,315.59,146.764z M147.278,220.69
			l24.509,24.509c-14.169,0.224-31.225-2.122-40.991-11.888v-0.001c-13.133-13.132-12.854-39.447-10.943-54.187
			c14.751-1.912,41.059-2.188,54.188,10.942c9.768,9.768,12.114,26.827,11.89,40.993l-24.51-24.51
			c-3.905-3.905-10.237-3.905-14.143,0C143.373,210.453,143.373,216.785,147.278,220.69z"/>
	</g>
</g>
<g>
	<g>
		<path d="M299.195,409.35c-0.13-0.64-0.319-1.27-0.569-1.87s-0.561-1.18-0.92-1.73c-0.37-0.54-0.79-1.06-1.25-1.52
			c-0.46-0.46-0.971-0.88-1.521-1.24c-0.54-0.36-1.12-0.67-1.72-0.92c-0.61-0.25-1.24-0.44-1.87-0.57c-1.29-0.26-2.62-0.26-3.91,0
			c-0.64,0.13-1.27,0.32-1.87,0.57c-0.609,0.25-1.19,0.56-1.73,0.92c-0.55,0.36-1.061,0.78-1.52,1.24
			c-0.46,0.46-0.88,0.98-1.24,1.52c-0.359,0.55-0.67,1.13-0.92,1.73s-0.439,1.23-0.569,1.87c-0.13,0.65-0.2,1.3-0.2,1.961
			c0,0.65,0.07,1.309,0.2,1.95c0.13,0.64,0.319,1.27,0.569,1.87c0.25,0.6,0.561,1.18,0.92,1.73c0.36,0.54,0.78,1.06,1.24,1.52
			c0.46,0.46,0.971,0.88,1.52,1.24c0.54,0.36,1.12,0.67,1.73,0.92c0.601,0.25,1.23,0.44,1.87,0.57c0.64,0.13,1.3,0.2,1.95,0.2
			s1.31-0.07,1.96-0.2c0.63-0.13,1.26-0.32,1.87-0.57c0.6-0.25,1.18-0.56,1.72-0.92c0.55-0.36,1.06-0.78,1.521-1.24
			c0.46-0.46,0.88-0.98,1.25-1.52c0.359-0.55,0.67-1.13,0.92-1.73c0.25-0.6,0.439-1.23,0.569-1.87c0.13-0.64,0.19-1.3,0.19-1.95
			C299.385,410.651,299.324,410.001,299.195,409.35z"/>
	</g>
</g>
<g>
</g>
<g>
</g>
<g>
</g>
<g>
</g>
<g>
</g>
<g>
</g>
<g>
</g>
<g>
</g>
<g>
</g>
<g>
</g>
<g>
</g>
<g>
</g>
<g>
</g>
<g>
</g>
<g>
</g>
</svg>
